<mxfile host="Electron" modified="2024-02-05T19:35:05.804Z" agent="Mozilla/5.0 (Windows NT 10.0; Win64; x64) AppleWebKit/537.36 (KHTML, like Gecko) draw.io/23.0.2 Chrome/120.0.6099.109 Electron/28.1.0 Safari/537.36" etag="6FqUAFSVWJCEW6MsA3JN" version="23.0.2" type="device">
  <diagram name="Page-1" id="oGObAUjElI8NySh6RBFr">
    <mxGraphModel dx="2150" dy="669" grid="1" gridSize="10" guides="1" tooltips="1" connect="1" arrows="1" fold="1" page="1" pageScale="1" pageWidth="1100" pageHeight="850" background="none" math="0" shadow="1">
      <root>
        <mxCell id="0" />
        <mxCell id="1" parent="0" />
        <mxCell id="BeFHwcyI2mmiKTag6LvH-1" value="Building" style="whiteSpace=wrap;html=1;align=center;" parent="1" vertex="1">
          <mxGeometry x="410" y="290" width="100" height="40" as="geometry" />
        </mxCell>
        <mxCell id="BeFHwcyI2mmiKTag6LvH-3" value="Building_ID" style="ellipse;whiteSpace=wrap;html=1;align=center;fontStyle=4;rotation=-90;" parent="1" vertex="1">
          <mxGeometry x="210" y="230" width="100" height="40" as="geometry" />
        </mxCell>
        <mxCell id="BeFHwcyI2mmiKTag6LvH-4" value="Name" style="ellipse;whiteSpace=wrap;html=1;align=center;rotation=-90;" parent="1" vertex="1">
          <mxGeometry x="260" y="190" width="100" height="40" as="geometry" />
        </mxCell>
        <mxCell id="BeFHwcyI2mmiKTag6LvH-5" value="Certification_ID" style="ellipse;whiteSpace=wrap;html=1;align=center;direction=west;rotation=-90;" parent="1" vertex="1">
          <mxGeometry x="610" y="230" width="100" height="40" as="geometry" />
        </mxCell>
        <mxCell id="BeFHwcyI2mmiKTag6LvH-6" value="Certified" style="ellipse;whiteSpace=wrap;html=1;align=center;rotation=-90;" parent="1" vertex="1">
          <mxGeometry x="560" y="190" width="100" height="40" as="geometry" />
        </mxCell>
        <mxCell id="BeFHwcyI2mmiKTag6LvH-7" value="Energy Effiency Rating" style="ellipse;whiteSpace=wrap;html=1;align=center;rotation=-90;" parent="1" vertex="1">
          <mxGeometry x="510" y="160" width="100" height="40" as="geometry" />
        </mxCell>
        <mxCell id="BeFHwcyI2mmiKTag6LvH-8" value="HVMC System" style="ellipse;whiteSpace=wrap;html=1;align=center;rotation=-90;" parent="1" vertex="1">
          <mxGeometry x="460" y="130" width="100" height="40" as="geometry" />
        </mxCell>
        <mxCell id="BeFHwcyI2mmiKTag6LvH-9" value="Construction Date" style="ellipse;whiteSpace=wrap;html=1;align=center;rotation=-90;" parent="1" vertex="1">
          <mxGeometry x="410" y="110" width="100" height="40" as="geometry" />
        </mxCell>
        <mxCell id="BeFHwcyI2mmiKTag6LvH-10" value="Capacity" style="ellipse;whiteSpace=wrap;html=1;align=center;rotation=-90;" parent="1" vertex="1">
          <mxGeometry x="360" y="130" width="100" height="40" as="geometry" />
        </mxCell>
        <mxCell id="BeFHwcyI2mmiKTag6LvH-11" value="Location" style="ellipse;whiteSpace=wrap;html=1;align=center;rotation=-90;" parent="1" vertex="1">
          <mxGeometry x="310" y="160" width="100" height="40" as="geometry" />
        </mxCell>
        <mxCell id="BeFHwcyI2mmiKTag6LvH-13" value="" style="endArrow=none;html=1;rounded=0;exitX=0.246;exitY=0.929;exitDx=0;exitDy=0;exitPerimeter=0;" parent="1" source="BeFHwcyI2mmiKTag6LvH-3" target="BeFHwcyI2mmiKTag6LvH-1" edge="1">
          <mxGeometry relative="1" as="geometry">
            <mxPoint x="390" y="210" as="sourcePoint" />
            <mxPoint x="550" y="210" as="targetPoint" />
          </mxGeometry>
        </mxCell>
        <mxCell id="BeFHwcyI2mmiKTag6LvH-14" value="" style="endArrow=none;html=1;rounded=0;" parent="1" source="BeFHwcyI2mmiKTag6LvH-4" target="BeFHwcyI2mmiKTag6LvH-1" edge="1">
          <mxGeometry relative="1" as="geometry">
            <mxPoint x="287" y="285" as="sourcePoint" />
            <mxPoint x="420" y="311" as="targetPoint" />
          </mxGeometry>
        </mxCell>
        <mxCell id="BeFHwcyI2mmiKTag6LvH-15" value="" style="endArrow=none;html=1;rounded=0;" parent="1" source="BeFHwcyI2mmiKTag6LvH-11" target="BeFHwcyI2mmiKTag6LvH-1" edge="1">
          <mxGeometry relative="1" as="geometry">
            <mxPoint x="329" y="271" as="sourcePoint" />
            <mxPoint x="420" y="302" as="targetPoint" />
          </mxGeometry>
        </mxCell>
        <mxCell id="BeFHwcyI2mmiKTag6LvH-16" value="" style="endArrow=none;html=1;rounded=0;" parent="1" source="BeFHwcyI2mmiKTag6LvH-10" target="BeFHwcyI2mmiKTag6LvH-1" edge="1">
          <mxGeometry relative="1" as="geometry">
            <mxPoint x="388" y="230" as="sourcePoint" />
            <mxPoint x="452" y="300" as="targetPoint" />
          </mxGeometry>
        </mxCell>
        <mxCell id="BeFHwcyI2mmiKTag6LvH-17" value="" style="endArrow=none;html=1;rounded=0;" parent="1" source="BeFHwcyI2mmiKTag6LvH-9" target="BeFHwcyI2mmiKTag6LvH-1" edge="1">
          <mxGeometry relative="1" as="geometry">
            <mxPoint x="434" y="226" as="sourcePoint" />
            <mxPoint x="462" y="300" as="targetPoint" />
          </mxGeometry>
        </mxCell>
        <mxCell id="BeFHwcyI2mmiKTag6LvH-18" value="" style="endArrow=none;html=1;rounded=0;" parent="1" source="BeFHwcyI2mmiKTag6LvH-8" target="BeFHwcyI2mmiKTag6LvH-1" edge="1">
          <mxGeometry relative="1" as="geometry">
            <mxPoint x="470" y="230" as="sourcePoint" />
            <mxPoint x="470" y="300" as="targetPoint" />
          </mxGeometry>
        </mxCell>
        <mxCell id="BeFHwcyI2mmiKTag6LvH-19" value="" style="endArrow=none;html=1;rounded=0;" parent="1" source="BeFHwcyI2mmiKTag6LvH-7" target="BeFHwcyI2mmiKTag6LvH-1" edge="1">
          <mxGeometry relative="1" as="geometry">
            <mxPoint x="506" y="226" as="sourcePoint" />
            <mxPoint x="480" y="300" as="targetPoint" />
          </mxGeometry>
        </mxCell>
        <mxCell id="BeFHwcyI2mmiKTag6LvH-20" value="" style="endArrow=none;html=1;rounded=0;" parent="1" source="BeFHwcyI2mmiKTag6LvH-6" target="BeFHwcyI2mmiKTag6LvH-1" edge="1">
          <mxGeometry relative="1" as="geometry">
            <mxPoint x="552" y="230" as="sourcePoint" />
            <mxPoint x="488" y="300" as="targetPoint" />
          </mxGeometry>
        </mxCell>
        <mxCell id="BeFHwcyI2mmiKTag6LvH-21" value="" style="endArrow=none;html=1;rounded=0;" parent="1" source="BeFHwcyI2mmiKTag6LvH-5" target="BeFHwcyI2mmiKTag6LvH-1" edge="1">
          <mxGeometry relative="1" as="geometry">
            <mxPoint x="601" y="242" as="sourcePoint" />
            <mxPoint x="503" y="300" as="targetPoint" />
          </mxGeometry>
        </mxCell>
        <mxCell id="BeFHwcyI2mmiKTag6LvH-22" value="Latutude" style="ellipse;whiteSpace=wrap;html=1;align=center;rotation=-90;" parent="1" vertex="1">
          <mxGeometry x="270" y="60" width="90" height="30" as="geometry" />
        </mxCell>
        <mxCell id="BeFHwcyI2mmiKTag6LvH-23" value="Longitude" style="ellipse;whiteSpace=wrap;html=1;align=center;rotation=-90;" parent="1" vertex="1">
          <mxGeometry x="315" y="40" width="90" height="30" as="geometry" />
        </mxCell>
        <mxCell id="BeFHwcyI2mmiKTag6LvH-24" value="" style="endArrow=none;html=1;rounded=0;" parent="1" source="BeFHwcyI2mmiKTag6LvH-22" target="BeFHwcyI2mmiKTag6LvH-11" edge="1">
          <mxGeometry relative="1" as="geometry">
            <mxPoint x="388" y="213" as="sourcePoint" />
            <mxPoint x="455" y="300" as="targetPoint" />
          </mxGeometry>
        </mxCell>
        <mxCell id="BeFHwcyI2mmiKTag6LvH-25" value="" style="endArrow=none;html=1;rounded=0;" parent="1" source="BeFHwcyI2mmiKTag6LvH-23" target="BeFHwcyI2mmiKTag6LvH-11" edge="1">
          <mxGeometry relative="1" as="geometry">
            <mxPoint x="337" y="113" as="sourcePoint" />
            <mxPoint x="355" y="156" as="targetPoint" />
          </mxGeometry>
        </mxCell>
        <mxCell id="BeFHwcyI2mmiKTag6LvH-26" value="Sensor Data" style="whiteSpace=wrap;html=1;align=center;" parent="1" vertex="1">
          <mxGeometry x="910" y="400" width="100" height="40" as="geometry" />
        </mxCell>
        <mxCell id="BeFHwcyI2mmiKTag6LvH-27" value="Building_ID" style="ellipse;whiteSpace=wrap;html=1;align=center;" parent="1" vertex="1">
          <mxGeometry x="1060" y="350" width="100" height="40" as="geometry" />
        </mxCell>
        <mxCell id="BeFHwcyI2mmiKTag6LvH-28" value="Reading_ID" style="ellipse;whiteSpace=wrap;html=1;align=center;fontStyle=4;" parent="1" vertex="1">
          <mxGeometry x="1060" y="300" width="100" height="40" as="geometry" />
        </mxCell>
        <mxCell id="BeFHwcyI2mmiKTag6LvH-29" value="Sensor Type" style="ellipse;shape=doubleEllipse;margin=3;whiteSpace=wrap;html=1;align=center;" parent="1" vertex="1">
          <mxGeometry x="1060" y="400" width="100" height="40" as="geometry" />
        </mxCell>
        <mxCell id="BeFHwcyI2mmiKTag6LvH-30" value="Value" style="ellipse;whiteSpace=wrap;html=1;align=center;" parent="1" vertex="1">
          <mxGeometry x="1060" y="450" width="100" height="40" as="geometry" />
        </mxCell>
        <mxCell id="BeFHwcyI2mmiKTag6LvH-31" value="TimeStamp" style="ellipse;whiteSpace=wrap;html=1;align=center;" parent="1" vertex="1">
          <mxGeometry x="1060" y="500" width="100" height="40" as="geometry" />
        </mxCell>
        <mxCell id="BeFHwcyI2mmiKTag6LvH-32" value="" style="endArrow=none;html=1;rounded=0;exitX=0;exitY=1;exitDx=0;exitDy=0;" parent="1" source="BeFHwcyI2mmiKTag6LvH-28" target="BeFHwcyI2mmiKTag6LvH-26" edge="1">
          <mxGeometry relative="1" as="geometry">
            <mxPoint x="810" y="266" as="sourcePoint" />
            <mxPoint x="680" y="305" as="targetPoint" />
          </mxGeometry>
        </mxCell>
        <mxCell id="BeFHwcyI2mmiKTag6LvH-33" value="" style="endArrow=none;html=1;rounded=0;" parent="1" source="BeFHwcyI2mmiKTag6LvH-27" target="BeFHwcyI2mmiKTag6LvH-26" edge="1">
          <mxGeometry relative="1" as="geometry">
            <mxPoint x="1065" y="344" as="sourcePoint" />
            <mxPoint x="992" y="410" as="targetPoint" />
          </mxGeometry>
        </mxCell>
        <mxCell id="BeFHwcyI2mmiKTag6LvH-34" value="" style="endArrow=none;html=1;rounded=0;" parent="1" source="BeFHwcyI2mmiKTag6LvH-29" target="BeFHwcyI2mmiKTag6LvH-26" edge="1">
          <mxGeometry relative="1" as="geometry">
            <mxPoint x="1064" y="394" as="sourcePoint" />
            <mxPoint x="1020" y="411" as="targetPoint" />
          </mxGeometry>
        </mxCell>
        <mxCell id="BeFHwcyI2mmiKTag6LvH-35" value="" style="endArrow=none;html=1;rounded=0;" parent="1" source="BeFHwcyI2mmiKTag6LvH-30" target="BeFHwcyI2mmiKTag6LvH-26" edge="1">
          <mxGeometry relative="1" as="geometry">
            <mxPoint x="1050" y="430" as="sourcePoint" />
            <mxPoint x="1020" y="430" as="targetPoint" />
          </mxGeometry>
        </mxCell>
        <mxCell id="BeFHwcyI2mmiKTag6LvH-36" value="" style="endArrow=none;html=1;rounded=0;" parent="1" source="BeFHwcyI2mmiKTag6LvH-31" target="BeFHwcyI2mmiKTag6LvH-26" edge="1">
          <mxGeometry relative="1" as="geometry">
            <mxPoint x="1064" y="466" as="sourcePoint" />
            <mxPoint x="1020" y="449" as="targetPoint" />
          </mxGeometry>
        </mxCell>
        <mxCell id="BeFHwcyI2mmiKTag6LvH-37" value="Energy Consumption" style="whiteSpace=wrap;html=1;align=center;" parent="1" vertex="1">
          <mxGeometry x="-110" y="400" width="100" height="40" as="geometry" />
        </mxCell>
        <mxCell id="BeFHwcyI2mmiKTag6LvH-43" value="Consumption_ID" style="ellipse;whiteSpace=wrap;html=1;align=center;fontStyle=4;" parent="1" vertex="1">
          <mxGeometry x="-270" y="300" width="100" height="40" as="geometry" />
        </mxCell>
        <mxCell id="BeFHwcyI2mmiKTag6LvH-44" value="Building_ID" style="ellipse;whiteSpace=wrap;html=1;align=center;" parent="1" vertex="1">
          <mxGeometry x="-270" y="350" width="100" height="40" as="geometry" />
        </mxCell>
        <mxCell id="BeFHwcyI2mmiKTag6LvH-47" value="Time" style="ellipse;whiteSpace=wrap;html=1;align=center;" parent="1" vertex="1">
          <mxGeometry x="-270" y="500" width="100" height="40" as="geometry" />
        </mxCell>
        <mxCell id="BeFHwcyI2mmiKTag6LvH-48" value="Amount" style="ellipse;whiteSpace=wrap;html=1;align=center;" parent="1" vertex="1">
          <mxGeometry x="-270" y="450" width="100" height="40" as="geometry" />
        </mxCell>
        <mxCell id="BeFHwcyI2mmiKTag6LvH-50" value="Consumption Type" style="ellipse;shape=doubleEllipse;margin=3;whiteSpace=wrap;html=1;align=center;" parent="1" vertex="1">
          <mxGeometry x="-270" y="400" width="100" height="40" as="geometry" />
        </mxCell>
        <mxCell id="BeFHwcyI2mmiKTag6LvH-52" value="" style="endArrow=none;html=1;rounded=0;" parent="1" source="BeFHwcyI2mmiKTag6LvH-43" target="BeFHwcyI2mmiKTag6LvH-37" edge="1">
          <mxGeometry relative="1" as="geometry">
            <mxPoint x="715" y="344" as="sourcePoint" />
            <mxPoint x="642" y="410" as="targetPoint" />
          </mxGeometry>
        </mxCell>
        <mxCell id="BeFHwcyI2mmiKTag6LvH-53" value="" style="endArrow=none;html=1;rounded=0;" parent="1" source="BeFHwcyI2mmiKTag6LvH-44" target="BeFHwcyI2mmiKTag6LvH-37" edge="1">
          <mxGeometry relative="1" as="geometry">
            <mxPoint x="-167" y="348" as="sourcePoint" />
            <mxPoint x="-86" y="410" as="targetPoint" />
          </mxGeometry>
        </mxCell>
        <mxCell id="BeFHwcyI2mmiKTag6LvH-54" value="" style="endArrow=none;html=1;rounded=0;" parent="1" source="BeFHwcyI2mmiKTag6LvH-50" target="BeFHwcyI2mmiKTag6LvH-37" edge="1">
          <mxGeometry relative="1" as="geometry">
            <mxPoint x="-154" y="394" as="sourcePoint" />
            <mxPoint x="-110" y="411" as="targetPoint" />
          </mxGeometry>
        </mxCell>
        <mxCell id="BeFHwcyI2mmiKTag6LvH-55" value="" style="endArrow=none;html=1;rounded=0;" parent="1" source="BeFHwcyI2mmiKTag6LvH-48" target="BeFHwcyI2mmiKTag6LvH-37" edge="1">
          <mxGeometry relative="1" as="geometry">
            <mxPoint x="-140" y="430" as="sourcePoint" />
            <mxPoint x="-110" y="430" as="targetPoint" />
          </mxGeometry>
        </mxCell>
        <mxCell id="BeFHwcyI2mmiKTag6LvH-56" value="" style="endArrow=none;html=1;rounded=0;exitX=1;exitY=0;exitDx=0;exitDy=0;" parent="1" source="BeFHwcyI2mmiKTag6LvH-47" target="BeFHwcyI2mmiKTag6LvH-37" edge="1">
          <mxGeometry relative="1" as="geometry">
            <mxPoint x="-154" y="466" as="sourcePoint" />
            <mxPoint x="-110" y="449" as="targetPoint" />
          </mxGeometry>
        </mxCell>
        <mxCell id="BeFHwcyI2mmiKTag6LvH-60" value="Energy Source Type" style="whiteSpace=wrap;html=1;align=center;" parent="1" vertex="1">
          <mxGeometry x="230" y="615" width="100" height="40" as="geometry" />
        </mxCell>
        <mxCell id="BeFHwcyI2mmiKTag6LvH-61" value="Energy Source Details&amp;nbsp;" style="whiteSpace=wrap;html=1;align=center;" parent="1" vertex="1">
          <mxGeometry x="-110" y="700" width="100" height="40" as="geometry" />
        </mxCell>
        <mxCell id="BeFHwcyI2mmiKTag6LvH-62" value="Detail_ID" style="ellipse;whiteSpace=wrap;html=1;align=center;fontStyle=4;" parent="1" vertex="1">
          <mxGeometry x="-270" y="600" width="100" height="40" as="geometry" />
        </mxCell>
        <mxCell id="BeFHwcyI2mmiKTag6LvH-63" value="Effeciency" style="ellipse;whiteSpace=wrap;html=1;align=center;" parent="1" vertex="1">
          <mxGeometry x="-270" y="650" width="100" height="40" as="geometry" />
        </mxCell>
        <mxCell id="BeFHwcyI2mmiKTag6LvH-65" value="Resource Availablity" style="ellipse;whiteSpace=wrap;html=1;align=center;" parent="1" vertex="1">
          <mxGeometry x="-270" y="800" width="100" height="40" as="geometry" />
        </mxCell>
        <mxCell id="BeFHwcyI2mmiKTag6LvH-67" value="Source Name" style="ellipse;whiteSpace=wrap;html=1;align=center;" parent="1" vertex="1">
          <mxGeometry x="-270" y="750" width="100" height="40" as="geometry" />
        </mxCell>
        <mxCell id="BeFHwcyI2mmiKTag6LvH-68" value="SourceType_ID" style="ellipse;whiteSpace=wrap;html=1;align=center;" parent="1" vertex="1">
          <mxGeometry x="-270" y="700" width="100" height="40" as="geometry" />
        </mxCell>
        <mxCell id="BeFHwcyI2mmiKTag6LvH-69" value="SourceType_ID" style="ellipse;whiteSpace=wrap;html=1;align=center;fontStyle=4;" parent="1" vertex="1">
          <mxGeometry x="90" y="550" width="100" height="40" as="geometry" />
        </mxCell>
        <mxCell id="BeFHwcyI2mmiKTag6LvH-70" value="TypeName" style="ellipse;whiteSpace=wrap;html=1;align=center;" parent="1" vertex="1">
          <mxGeometry x="90" y="600" width="100" height="40" as="geometry" />
        </mxCell>
        <mxCell id="BeFHwcyI2mmiKTag6LvH-72" value="Emission Factor" style="ellipse;whiteSpace=wrap;html=1;align=center;" parent="1" vertex="1">
          <mxGeometry x="90" y="700" width="100" height="40" as="geometry" />
        </mxCell>
        <mxCell id="BeFHwcyI2mmiKTag6LvH-73" value="Unit of measure" style="ellipse;whiteSpace=wrap;html=1;align=center;" parent="1" vertex="1">
          <mxGeometry x="90" y="650" width="100" height="40" as="geometry" />
        </mxCell>
        <mxCell id="BeFHwcyI2mmiKTag6LvH-75" value="" style="endArrow=none;html=1;rounded=0;" parent="1" source="BeFHwcyI2mmiKTag6LvH-69" target="BeFHwcyI2mmiKTag6LvH-60" edge="1">
          <mxGeometry relative="1" as="geometry">
            <mxPoint x="387" y="427" as="sourcePoint" />
            <mxPoint x="306" y="365" as="targetPoint" />
          </mxGeometry>
        </mxCell>
        <mxCell id="BeFHwcyI2mmiKTag6LvH-76" value="" style="endArrow=none;html=1;rounded=0;" parent="1" source="BeFHwcyI2mmiKTag6LvH-70" target="BeFHwcyI2mmiKTag6LvH-60" edge="1">
          <mxGeometry relative="1" as="geometry">
            <mxPoint x="374" y="584" as="sourcePoint" />
            <mxPoint x="275" y="623" as="targetPoint" />
          </mxGeometry>
        </mxCell>
        <mxCell id="BeFHwcyI2mmiKTag6LvH-77" value="" style="endArrow=none;html=1;rounded=0;" parent="1" source="BeFHwcyI2mmiKTag6LvH-73" target="BeFHwcyI2mmiKTag6LvH-60" edge="1">
          <mxGeometry relative="1" as="geometry">
            <mxPoint x="365" y="629" as="sourcePoint" />
            <mxPoint x="330" y="635" as="targetPoint" />
          </mxGeometry>
        </mxCell>
        <mxCell id="BeFHwcyI2mmiKTag6LvH-78" value="" style="endArrow=none;html=1;rounded=0;" parent="1" source="BeFHwcyI2mmiKTag6LvH-72" target="BeFHwcyI2mmiKTag6LvH-60" edge="1">
          <mxGeometry relative="1" as="geometry">
            <mxPoint x="365" y="661" as="sourcePoint" />
            <mxPoint x="330" y="655" as="targetPoint" />
          </mxGeometry>
        </mxCell>
        <mxCell id="BeFHwcyI2mmiKTag6LvH-80" value="" style="endArrow=none;html=1;rounded=0;" parent="1" source="BeFHwcyI2mmiKTag6LvH-61" target="BeFHwcyI2mmiKTag6LvH-62" edge="1">
          <mxGeometry relative="1" as="geometry">
            <mxPoint x="216" y="675" as="sourcePoint" />
            <mxPoint x="150" y="714" as="targetPoint" />
          </mxGeometry>
        </mxCell>
        <mxCell id="BeFHwcyI2mmiKTag6LvH-81" value="" style="endArrow=none;html=1;rounded=0;" parent="1" source="BeFHwcyI2mmiKTag6LvH-61" target="BeFHwcyI2mmiKTag6LvH-63" edge="1">
          <mxGeometry relative="1" as="geometry">
            <mxPoint x="-78" y="710" as="sourcePoint" />
            <mxPoint x="-166" y="647" as="targetPoint" />
          </mxGeometry>
        </mxCell>
        <mxCell id="BeFHwcyI2mmiKTag6LvH-82" value="" style="endArrow=none;html=1;rounded=0;" parent="1" source="BeFHwcyI2mmiKTag6LvH-61" target="BeFHwcyI2mmiKTag6LvH-68" edge="1">
          <mxGeometry relative="1" as="geometry">
            <mxPoint x="-100" y="712" as="sourcePoint" />
            <mxPoint x="-153" y="693" as="targetPoint" />
          </mxGeometry>
        </mxCell>
        <mxCell id="BeFHwcyI2mmiKTag6LvH-83" value="" style="endArrow=none;html=1;rounded=0;" parent="1" source="BeFHwcyI2mmiKTag6LvH-61" target="BeFHwcyI2mmiKTag6LvH-67" edge="1">
          <mxGeometry relative="1" as="geometry">
            <mxPoint x="-100" y="730" as="sourcePoint" />
            <mxPoint x="-140" y="730" as="targetPoint" />
          </mxGeometry>
        </mxCell>
        <mxCell id="BeFHwcyI2mmiKTag6LvH-84" value="" style="endArrow=none;html=1;rounded=0;entryX=1;entryY=0;entryDx=0;entryDy=0;" parent="1" source="BeFHwcyI2mmiKTag6LvH-61" target="BeFHwcyI2mmiKTag6LvH-65" edge="1">
          <mxGeometry relative="1" as="geometry">
            <mxPoint x="-100" y="748" as="sourcePoint" />
            <mxPoint x="-153" y="767" as="targetPoint" />
          </mxGeometry>
        </mxCell>
        <mxCell id="BeFHwcyI2mmiKTag6LvH-86" value="Energy Cost" style="whiteSpace=wrap;html=1;align=center;" parent="1" vertex="1">
          <mxGeometry x="577.5" y="615" width="100" height="40" as="geometry" />
        </mxCell>
        <mxCell id="BeFHwcyI2mmiKTag6LvH-87" value="Cost_ID" style="ellipse;whiteSpace=wrap;html=1;align=center;fontStyle=4;" parent="1" vertex="1">
          <mxGeometry x="712.5" y="540" width="100" height="40" as="geometry" />
        </mxCell>
        <mxCell id="BeFHwcyI2mmiKTag6LvH-88" value="SourceType_ID" style="ellipse;whiteSpace=wrap;html=1;align=center;" parent="1" vertex="1">
          <mxGeometry x="712.5" y="590" width="100" height="40" as="geometry" />
        </mxCell>
        <mxCell id="BeFHwcyI2mmiKTag6LvH-90" value="CostPerUnit" style="ellipse;whiteSpace=wrap;html=1;align=center;" parent="1" vertex="1">
          <mxGeometry x="712.5" y="690" width="100" height="40" as="geometry" />
        </mxCell>
        <mxCell id="BeFHwcyI2mmiKTag6LvH-91" value="Effective Date" style="ellipse;whiteSpace=wrap;html=1;align=center;" parent="1" vertex="1">
          <mxGeometry x="712.5" y="640" width="100" height="40" as="geometry" />
        </mxCell>
        <mxCell id="BeFHwcyI2mmiKTag6LvH-92" value="" style="endArrow=none;html=1;rounded=0;" parent="1" source="BeFHwcyI2mmiKTag6LvH-86" target="BeFHwcyI2mmiKTag6LvH-87" edge="1">
          <mxGeometry relative="1" as="geometry">
            <mxPoint x="1178.5" y="615" as="sourcePoint" />
            <mxPoint x="1112.5" y="654" as="targetPoint" />
          </mxGeometry>
        </mxCell>
        <mxCell id="BeFHwcyI2mmiKTag6LvH-93" value="" style="endArrow=none;html=1;rounded=0;" parent="1" source="BeFHwcyI2mmiKTag6LvH-86" target="BeFHwcyI2mmiKTag6LvH-88" edge="1">
          <mxGeometry relative="1" as="geometry">
            <mxPoint x="884.5" y="650" as="sourcePoint" />
            <mxPoint x="796.5" y="587" as="targetPoint" />
          </mxGeometry>
        </mxCell>
        <mxCell id="BeFHwcyI2mmiKTag6LvH-94" value="" style="endArrow=none;html=1;rounded=0;" parent="1" source="BeFHwcyI2mmiKTag6LvH-86" target="BeFHwcyI2mmiKTag6LvH-91" edge="1">
          <mxGeometry relative="1" as="geometry">
            <mxPoint x="862.5" y="652" as="sourcePoint" />
            <mxPoint x="809.5" y="633" as="targetPoint" />
          </mxGeometry>
        </mxCell>
        <mxCell id="BeFHwcyI2mmiKTag6LvH-95" value="" style="endArrow=none;html=1;rounded=0;" parent="1" source="BeFHwcyI2mmiKTag6LvH-86" target="BeFHwcyI2mmiKTag6LvH-90" edge="1">
          <mxGeometry relative="1" as="geometry">
            <mxPoint x="862.5" y="670" as="sourcePoint" />
            <mxPoint x="822.5" y="670" as="targetPoint" />
          </mxGeometry>
        </mxCell>
        <mxCell id="BeFHwcyI2mmiKTag6LvH-106" value="Weather data" style="whiteSpace=wrap;html=1;align=center;rotation=0;" parent="1" vertex="1">
          <mxGeometry x="-100" y="997.5" width="100" height="40" as="geometry" />
        </mxCell>
        <mxCell id="BeFHwcyI2mmiKTag6LvH-107" value="Weather_ID" style="ellipse;whiteSpace=wrap;html=1;align=center;fontStyle=4;rotation=-90;" parent="1" vertex="1">
          <mxGeometry x="-250" y="1082.5" width="100" height="40" as="geometry" />
        </mxCell>
        <mxCell id="BeFHwcyI2mmiKTag6LvH-108" value="Building_ID" style="ellipse;whiteSpace=wrap;html=1;align=center;rotation=-90;" parent="1" vertex="1">
          <mxGeometry x="-200" y="1132.5" width="100" height="40" as="geometry" />
        </mxCell>
        <mxCell id="BeFHwcyI2mmiKTag6LvH-109" value="WindSpeed" style="ellipse;whiteSpace=wrap;html=1;align=center;rotation=-90;" parent="1" vertex="1">
          <mxGeometry x="-50" y="1167.5" width="100" height="40" as="geometry" />
        </mxCell>
        <mxCell id="BeFHwcyI2mmiKTag6LvH-110" value="Humidity" style="ellipse;whiteSpace=wrap;html=1;align=center;rotation=-90;" parent="1" vertex="1">
          <mxGeometry x="-100" y="1212.5" width="100" height="40" as="geometry" />
        </mxCell>
        <mxCell id="BeFHwcyI2mmiKTag6LvH-111" value="Temperature" style="ellipse;whiteSpace=wrap;html=1;align=center;rotation=-90;" parent="1" vertex="1">
          <mxGeometry x="-150" y="1172.5" width="100" height="40" as="geometry" />
        </mxCell>
        <mxCell id="BeFHwcyI2mmiKTag6LvH-112" value="" style="endArrow=none;html=1;rounded=0;" parent="1" source="BeFHwcyI2mmiKTag6LvH-106" target="BeFHwcyI2mmiKTag6LvH-107" edge="1">
          <mxGeometry relative="1" as="geometry">
            <mxPoint x="376" y="1022.5" as="sourcePoint" />
            <mxPoint x="-180.49562856919056" y="1091.4378191884957" as="targetPoint" />
          </mxGeometry>
        </mxCell>
        <mxCell id="BeFHwcyI2mmiKTag6LvH-113" value="" style="endArrow=none;html=1;rounded=0;" parent="1" source="BeFHwcyI2mmiKTag6LvH-106" target="BeFHwcyI2mmiKTag6LvH-108" edge="1">
          <mxGeometry relative="1" as="geometry">
            <mxPoint x="82" y="1057.5" as="sourcePoint" />
            <mxPoint x="-6" y="994.5" as="targetPoint" />
          </mxGeometry>
        </mxCell>
        <mxCell id="BeFHwcyI2mmiKTag6LvH-114" value="" style="endArrow=none;html=1;rounded=0;" parent="1" source="BeFHwcyI2mmiKTag6LvH-106" target="BeFHwcyI2mmiKTag6LvH-111" edge="1">
          <mxGeometry relative="1" as="geometry">
            <mxPoint x="60" y="1059.5" as="sourcePoint" />
            <mxPoint x="7" y="1040.5" as="targetPoint" />
          </mxGeometry>
        </mxCell>
        <mxCell id="BeFHwcyI2mmiKTag6LvH-115" value="" style="endArrow=none;html=1;rounded=0;" parent="1" source="BeFHwcyI2mmiKTag6LvH-106" target="BeFHwcyI2mmiKTag6LvH-110" edge="1">
          <mxGeometry relative="1" as="geometry">
            <mxPoint x="60" y="1077.5" as="sourcePoint" />
            <mxPoint x="20" y="1077.5" as="targetPoint" />
          </mxGeometry>
        </mxCell>
        <mxCell id="BeFHwcyI2mmiKTag6LvH-116" value="" style="endArrow=none;html=1;rounded=0;" parent="1" source="BeFHwcyI2mmiKTag6LvH-106" target="BeFHwcyI2mmiKTag6LvH-109" edge="1">
          <mxGeometry relative="1" as="geometry">
            <mxPoint x="60" y="1095.5" as="sourcePoint" />
            <mxPoint x="7" y="1114.5" as="targetPoint" />
          </mxGeometry>
        </mxCell>
        <mxCell id="BeFHwcyI2mmiKTag6LvH-117" value="WeatherCondition" style="ellipse;whiteSpace=wrap;html=1;align=center;rotation=-90;" parent="1" vertex="1">
          <mxGeometry y="1132.5" width="100" height="40" as="geometry" />
        </mxCell>
        <mxCell id="BeFHwcyI2mmiKTag6LvH-118" value="TimeStamp" style="ellipse;whiteSpace=wrap;html=1;align=center;rotation=-90;" parent="1" vertex="1">
          <mxGeometry x="50" y="1082.5" width="100" height="40" as="geometry" />
        </mxCell>
        <mxCell id="BeFHwcyI2mmiKTag6LvH-119" value="" style="endArrow=none;html=1;rounded=0;" parent="1" source="BeFHwcyI2mmiKTag6LvH-106" target="BeFHwcyI2mmiKTag6LvH-117" edge="1">
          <mxGeometry relative="1" as="geometry">
            <mxPoint x="86" y="1097.5" as="sourcePoint" />
            <mxPoint x="5" y="1163.5" as="targetPoint" />
          </mxGeometry>
        </mxCell>
        <mxCell id="BeFHwcyI2mmiKTag6LvH-120" value="" style="endArrow=none;html=1;rounded=0;" parent="1" source="BeFHwcyI2mmiKTag6LvH-106" target="BeFHwcyI2mmiKTag6LvH-118" edge="1">
          <mxGeometry relative="1" as="geometry">
            <mxPoint x="92" y="1097.5" as="sourcePoint" />
            <mxPoint x="-13" y="1213.5" as="targetPoint" />
          </mxGeometry>
        </mxCell>
        <mxCell id="BeFHwcyI2mmiKTag6LvH-122" value="Maintinance Log" style="whiteSpace=wrap;html=1;align=center;" parent="1" vertex="1">
          <mxGeometry x="400" y="890" width="100" height="40" as="geometry" />
        </mxCell>
        <mxCell id="BeFHwcyI2mmiKTag6LvH-123" value="Log_ID" style="ellipse;whiteSpace=wrap;html=1;align=center;fontStyle=4;rotation=-90;" parent="1" vertex="1">
          <mxGeometry x="250" y="947.5" width="100" height="40" as="geometry" />
        </mxCell>
        <mxCell id="BeFHwcyI2mmiKTag6LvH-124" value="Building_ID" style="ellipse;whiteSpace=wrap;html=1;align=center;rotation=-90;" parent="1" vertex="1">
          <mxGeometry x="300" y="997.5" width="100" height="40" as="geometry" />
        </mxCell>
        <mxCell id="BeFHwcyI2mmiKTag6LvH-125" value="Maintainance Date" style="ellipse;whiteSpace=wrap;html=1;align=center;rotation=-90;" parent="1" vertex="1">
          <mxGeometry x="450" y="1017.5" width="100" height="40" as="geometry" />
        </mxCell>
        <mxCell id="BeFHwcyI2mmiKTag6LvH-126" value="Description" style="ellipse;whiteSpace=wrap;html=1;align=center;rotation=-90;" parent="1" vertex="1">
          <mxGeometry x="400" y="1037.5" width="100" height="40" as="geometry" />
        </mxCell>
        <mxCell id="BeFHwcyI2mmiKTag6LvH-127" value="Maintainance Type" style="ellipse;whiteSpace=wrap;html=1;align=center;rotation=-90;" parent="1" vertex="1">
          <mxGeometry x="350" y="1017.5" width="100" height="40" as="geometry" />
        </mxCell>
        <mxCell id="BeFHwcyI2mmiKTag6LvH-128" value="" style="endArrow=none;html=1;rounded=0;" parent="1" source="BeFHwcyI2mmiKTag6LvH-122" target="BeFHwcyI2mmiKTag6LvH-123" edge="1">
          <mxGeometry relative="1" as="geometry">
            <mxPoint x="1006" y="825" as="sourcePoint" />
            <mxPoint x="940" y="864" as="targetPoint" />
          </mxGeometry>
        </mxCell>
        <mxCell id="BeFHwcyI2mmiKTag6LvH-129" value="" style="endArrow=none;html=1;rounded=0;" parent="1" source="BeFHwcyI2mmiKTag6LvH-122" target="BeFHwcyI2mmiKTag6LvH-124" edge="1">
          <mxGeometry relative="1" as="geometry">
            <mxPoint x="712" y="860" as="sourcePoint" />
            <mxPoint x="624" y="797" as="targetPoint" />
          </mxGeometry>
        </mxCell>
        <mxCell id="BeFHwcyI2mmiKTag6LvH-130" value="" style="endArrow=none;html=1;rounded=0;" parent="1" source="BeFHwcyI2mmiKTag6LvH-122" target="BeFHwcyI2mmiKTag6LvH-127" edge="1">
          <mxGeometry relative="1" as="geometry">
            <mxPoint x="690" y="862" as="sourcePoint" />
            <mxPoint x="637" y="843" as="targetPoint" />
          </mxGeometry>
        </mxCell>
        <mxCell id="BeFHwcyI2mmiKTag6LvH-131" value="" style="endArrow=none;html=1;rounded=0;" parent="1" source="BeFHwcyI2mmiKTag6LvH-122" target="BeFHwcyI2mmiKTag6LvH-126" edge="1">
          <mxGeometry relative="1" as="geometry">
            <mxPoint x="690" y="880" as="sourcePoint" />
            <mxPoint x="450" y="1007.5" as="targetPoint" />
          </mxGeometry>
        </mxCell>
        <mxCell id="BeFHwcyI2mmiKTag6LvH-132" value="" style="endArrow=none;html=1;rounded=0;" parent="1" source="BeFHwcyI2mmiKTag6LvH-122" target="BeFHwcyI2mmiKTag6LvH-125" edge="1">
          <mxGeometry relative="1" as="geometry">
            <mxPoint x="690" y="898" as="sourcePoint" />
            <mxPoint x="637" y="917" as="targetPoint" />
          </mxGeometry>
        </mxCell>
        <mxCell id="BeFHwcyI2mmiKTag6LvH-133" value="Cost" style="ellipse;whiteSpace=wrap;html=1;align=center;rotation=-90;" parent="1" vertex="1">
          <mxGeometry x="500" y="997.5" width="100" height="40" as="geometry" />
        </mxCell>
        <mxCell id="BeFHwcyI2mmiKTag6LvH-134" value="Technician_ID" style="ellipse;whiteSpace=wrap;html=1;align=center;rotation=-90;" parent="1" vertex="1">
          <mxGeometry x="550" y="947.5" width="100" height="40" as="geometry" />
        </mxCell>
        <mxCell id="BeFHwcyI2mmiKTag6LvH-135" value="" style="endArrow=none;html=1;rounded=0;" parent="1" source="BeFHwcyI2mmiKTag6LvH-122" target="BeFHwcyI2mmiKTag6LvH-133" edge="1">
          <mxGeometry relative="1" as="geometry">
            <mxPoint x="716" y="900" as="sourcePoint" />
            <mxPoint x="635" y="966" as="targetPoint" />
          </mxGeometry>
        </mxCell>
        <mxCell id="BeFHwcyI2mmiKTag6LvH-136" value="" style="endArrow=none;html=1;rounded=0;" parent="1" source="BeFHwcyI2mmiKTag6LvH-122" target="BeFHwcyI2mmiKTag6LvH-134" edge="1">
          <mxGeometry relative="1" as="geometry">
            <mxPoint x="722" y="900" as="sourcePoint" />
            <mxPoint x="617" y="1016" as="targetPoint" />
          </mxGeometry>
        </mxCell>
        <mxCell id="BeFHwcyI2mmiKTag6LvH-137" value="Technician" style="whiteSpace=wrap;html=1;align=center;" parent="1" vertex="1">
          <mxGeometry x="910" y="685" width="100" height="40" as="geometry" />
        </mxCell>
        <mxCell id="BeFHwcyI2mmiKTag6LvH-138" value="Technician_ID" style="ellipse;whiteSpace=wrap;html=1;align=center;fontStyle=4;" parent="1" vertex="1">
          <mxGeometry x="1060" y="580" width="100" height="40" as="geometry" />
        </mxCell>
        <mxCell id="BeFHwcyI2mmiKTag6LvH-139" value="Name" style="ellipse;whiteSpace=wrap;html=1;align=center;" parent="1" vertex="1">
          <mxGeometry x="1060" y="630" width="100" height="40" as="geometry" />
        </mxCell>
        <mxCell id="BeFHwcyI2mmiKTag6LvH-140" value="Specialization" style="ellipse;whiteSpace=wrap;html=1;align=center;" parent="1" vertex="1">
          <mxGeometry x="1060" y="780" width="100" height="40" as="geometry" />
        </mxCell>
        <mxCell id="BeFHwcyI2mmiKTag6LvH-141" value="Main" style="ellipse;whiteSpace=wrap;html=1;align=center;" parent="1" vertex="1">
          <mxGeometry x="1060" y="730" width="100" height="40" as="geometry" />
        </mxCell>
        <mxCell id="BeFHwcyI2mmiKTag6LvH-142" value="Number" style="ellipse;whiteSpace=wrap;html=1;align=center;" parent="1" vertex="1">
          <mxGeometry x="1060" y="680" width="100" height="40" as="geometry" />
        </mxCell>
        <mxCell id="BeFHwcyI2mmiKTag6LvH-143" value="" style="endArrow=none;html=1;rounded=0;" parent="1" source="BeFHwcyI2mmiKTag6LvH-137" target="BeFHwcyI2mmiKTag6LvH-138" edge="1">
          <mxGeometry relative="1" as="geometry">
            <mxPoint x="1206" y="660" as="sourcePoint" />
            <mxPoint x="1140" y="699" as="targetPoint" />
          </mxGeometry>
        </mxCell>
        <mxCell id="BeFHwcyI2mmiKTag6LvH-144" value="" style="endArrow=none;html=1;rounded=0;" parent="1" source="BeFHwcyI2mmiKTag6LvH-137" target="BeFHwcyI2mmiKTag6LvH-139" edge="1">
          <mxGeometry relative="1" as="geometry">
            <mxPoint x="912" y="695" as="sourcePoint" />
            <mxPoint x="824" y="632" as="targetPoint" />
          </mxGeometry>
        </mxCell>
        <mxCell id="BeFHwcyI2mmiKTag6LvH-145" value="" style="endArrow=none;html=1;rounded=0;" parent="1" source="BeFHwcyI2mmiKTag6LvH-137" target="BeFHwcyI2mmiKTag6LvH-142" edge="1">
          <mxGeometry relative="1" as="geometry">
            <mxPoint x="890" y="697" as="sourcePoint" />
            <mxPoint x="837" y="678" as="targetPoint" />
          </mxGeometry>
        </mxCell>
        <mxCell id="BeFHwcyI2mmiKTag6LvH-146" value="" style="endArrow=none;html=1;rounded=0;" parent="1" source="BeFHwcyI2mmiKTag6LvH-137" target="BeFHwcyI2mmiKTag6LvH-141" edge="1">
          <mxGeometry relative="1" as="geometry">
            <mxPoint x="890" y="715" as="sourcePoint" />
            <mxPoint x="850" y="715" as="targetPoint" />
          </mxGeometry>
        </mxCell>
        <mxCell id="BeFHwcyI2mmiKTag6LvH-147" value="" style="endArrow=none;html=1;rounded=0;" parent="1" source="BeFHwcyI2mmiKTag6LvH-137" target="BeFHwcyI2mmiKTag6LvH-140" edge="1">
          <mxGeometry relative="1" as="geometry">
            <mxPoint x="890" y="733" as="sourcePoint" />
            <mxPoint x="837" y="752" as="targetPoint" />
          </mxGeometry>
        </mxCell>
        <mxCell id="BeFHwcyI2mmiKTag6LvH-152" value="Energy Consumption&lt;br&gt;Certificate" style="whiteSpace=wrap;html=1;align=center;" parent="1" vertex="1">
          <mxGeometry x="890" y="1002.5" width="100" height="40" as="geometry" />
        </mxCell>
        <mxCell id="BeFHwcyI2mmiKTag6LvH-153" value="Certificate_ID" style="ellipse;whiteSpace=wrap;html=1;align=center;fontStyle=4;rotation=-90;" parent="1" vertex="1">
          <mxGeometry x="750" y="1097.5" width="100" height="40" as="geometry" />
        </mxCell>
        <mxCell id="BeFHwcyI2mmiKTag6LvH-154" value="Building_ID" style="ellipse;whiteSpace=wrap;html=1;align=center;rotation=-90;" parent="1" vertex="1">
          <mxGeometry x="800" y="1152.5" width="100" height="40" as="geometry" />
        </mxCell>
        <mxCell id="BeFHwcyI2mmiKTag6LvH-155" value="certificate Date" style="ellipse;whiteSpace=wrap;html=1;align=center;rotation=-90;" parent="1" vertex="1">
          <mxGeometry x="980" y="1152.5" width="100" height="40" as="geometry" />
        </mxCell>
        <mxCell id="BeFHwcyI2mmiKTag6LvH-156" value="Certification Level" style="ellipse;whiteSpace=wrap;html=1;align=center;rotation=-90;" parent="1" vertex="1">
          <mxGeometry x="920" y="1172.5" width="100" height="40" as="geometry" />
        </mxCell>
        <mxCell id="BeFHwcyI2mmiKTag6LvH-157" value="Certificate Agency" style="ellipse;whiteSpace=wrap;html=1;align=center;rotation=-90;" parent="1" vertex="1">
          <mxGeometry x="860" y="1172.5" width="100" height="40" as="geometry" />
        </mxCell>
        <mxCell id="BeFHwcyI2mmiKTag6LvH-158" value="" style="endArrow=none;html=1;rounded=0;" parent="1" source="BeFHwcyI2mmiKTag6LvH-152" target="BeFHwcyI2mmiKTag6LvH-153" edge="1">
          <mxGeometry relative="1" as="geometry">
            <mxPoint x="1496" y="1157.5" as="sourcePoint" />
            <mxPoint x="1430" y="1196.5" as="targetPoint" />
          </mxGeometry>
        </mxCell>
        <mxCell id="BeFHwcyI2mmiKTag6LvH-159" value="" style="endArrow=none;html=1;rounded=0;" parent="1" source="BeFHwcyI2mmiKTag6LvH-152" target="BeFHwcyI2mmiKTag6LvH-154" edge="1">
          <mxGeometry relative="1" as="geometry">
            <mxPoint x="1202" y="1192.5" as="sourcePoint" />
            <mxPoint x="1114" y="1129.5" as="targetPoint" />
          </mxGeometry>
        </mxCell>
        <mxCell id="BeFHwcyI2mmiKTag6LvH-160" value="" style="endArrow=none;html=1;rounded=0;" parent="1" source="BeFHwcyI2mmiKTag6LvH-152" target="BeFHwcyI2mmiKTag6LvH-157" edge="1">
          <mxGeometry relative="1" as="geometry">
            <mxPoint x="1180" y="1194.5" as="sourcePoint" />
            <mxPoint x="1127" y="1175.5" as="targetPoint" />
          </mxGeometry>
        </mxCell>
        <mxCell id="BeFHwcyI2mmiKTag6LvH-161" value="" style="endArrow=none;html=1;rounded=0;" parent="1" source="BeFHwcyI2mmiKTag6LvH-152" target="BeFHwcyI2mmiKTag6LvH-156" edge="1">
          <mxGeometry relative="1" as="geometry">
            <mxPoint x="1180" y="1212.5" as="sourcePoint" />
            <mxPoint x="1140" y="1212.5" as="targetPoint" />
          </mxGeometry>
        </mxCell>
        <mxCell id="BeFHwcyI2mmiKTag6LvH-162" value="" style="endArrow=none;html=1;rounded=0;entryX=1;entryY=0;entryDx=0;entryDy=0;" parent="1" source="BeFHwcyI2mmiKTag6LvH-152" target="BeFHwcyI2mmiKTag6LvH-155" edge="1">
          <mxGeometry relative="1" as="geometry">
            <mxPoint x="1180" y="1230.5" as="sourcePoint" />
            <mxPoint x="1127" y="1249.5" as="targetPoint" />
          </mxGeometry>
        </mxCell>
        <mxCell id="BeFHwcyI2mmiKTag6LvH-163" value="Validity Period" style="ellipse;whiteSpace=wrap;html=1;align=center;rotation=-90;" parent="1" vertex="1">
          <mxGeometry x="1030" y="1097.5" width="100" height="40" as="geometry" />
        </mxCell>
        <mxCell id="BeFHwcyI2mmiKTag6LvH-165" value="" style="endArrow=none;html=1;rounded=0;" parent="1" source="BeFHwcyI2mmiKTag6LvH-152" target="BeFHwcyI2mmiKTag6LvH-163" edge="1">
          <mxGeometry relative="1" as="geometry">
            <mxPoint x="1206" y="1232.5" as="sourcePoint" />
            <mxPoint x="1125" y="1298.5" as="targetPoint" />
          </mxGeometry>
        </mxCell>
        <mxCell id="BeFHwcyI2mmiKTag6LvH-172" value="has" style="shape=rhombus;perimeter=rhombusPerimeter;whiteSpace=wrap;html=1;align=center;" parent="1" vertex="1">
          <mxGeometry x="140" y="330" width="70" height="50" as="geometry" />
        </mxCell>
        <mxCell id="BeFHwcyI2mmiKTag6LvH-173" value="belongs" style="shape=rhombus;perimeter=rhombusPerimeter;whiteSpace=wrap;html=1;align=center;" parent="1" vertex="1">
          <mxGeometry x="190" y="370" width="70" height="50" as="geometry" />
        </mxCell>
        <mxCell id="BeFHwcyI2mmiKTag6LvH-174" value="has" style="shape=rhombus;perimeter=rhombusPerimeter;whiteSpace=wrap;html=1;align=center;" parent="1" vertex="1">
          <mxGeometry x="705" y="330" width="70" height="50" as="geometry" />
        </mxCell>
        <mxCell id="BeFHwcyI2mmiKTag6LvH-175" value="belongs" style="shape=rhombus;perimeter=rhombusPerimeter;whiteSpace=wrap;html=1;align=center;" parent="1" vertex="1">
          <mxGeometry x="660" y="370" width="70" height="50" as="geometry" />
        </mxCell>
        <mxCell id="BeFHwcyI2mmiKTag6LvH-178" value="" style="edgeStyle=entityRelationEdgeStyle;fontSize=12;html=1;endArrow=ERoneToMany;rounded=0;entryX=1;entryY=0.5;entryDx=0;entryDy=0;exitX=0;exitY=0.5;exitDx=0;exitDy=0;" parent="1" source="BeFHwcyI2mmiKTag6LvH-172" target="BeFHwcyI2mmiKTag6LvH-37" edge="1">
          <mxGeometry width="100" height="100" relative="1" as="geometry">
            <mxPoint x="150" y="490" as="sourcePoint" />
            <mxPoint x="250" y="390" as="targetPoint" />
          </mxGeometry>
        </mxCell>
        <mxCell id="BeFHwcyI2mmiKTag6LvH-179" value="" style="edgeStyle=entityRelationEdgeStyle;fontSize=12;html=1;endArrow=ERone;endFill=1;rounded=0;" parent="1" source="BeFHwcyI2mmiKTag6LvH-172" target="BeFHwcyI2mmiKTag6LvH-1" edge="1">
          <mxGeometry width="100" height="100" relative="1" as="geometry">
            <mxPoint x="150" y="490" as="sourcePoint" />
            <mxPoint x="250" y="390" as="targetPoint" />
          </mxGeometry>
        </mxCell>
        <mxCell id="BeFHwcyI2mmiKTag6LvH-181" value="" style="edgeStyle=entityRelationEdgeStyle;fontSize=12;html=1;endArrow=ERone;endFill=1;rounded=0;" parent="1" source="BeFHwcyI2mmiKTag6LvH-175" target="BeFHwcyI2mmiKTag6LvH-1" edge="1">
          <mxGeometry width="100" height="100" relative="1" as="geometry">
            <mxPoint x="490" y="710" as="sourcePoint" />
            <mxPoint x="590" y="610" as="targetPoint" />
          </mxGeometry>
        </mxCell>
        <mxCell id="BeFHwcyI2mmiKTag6LvH-182" value="" style="edgeStyle=entityRelationEdgeStyle;fontSize=12;html=1;endArrow=ERmany;rounded=0;" parent="1" source="BeFHwcyI2mmiKTag6LvH-175" target="BeFHwcyI2mmiKTag6LvH-26" edge="1">
          <mxGeometry width="100" height="100" relative="1" as="geometry">
            <mxPoint x="490" y="710" as="sourcePoint" />
            <mxPoint x="590" y="610" as="targetPoint" />
          </mxGeometry>
        </mxCell>
        <mxCell id="BeFHwcyI2mmiKTag6LvH-184" value="" style="edgeStyle=entityRelationEdgeStyle;fontSize=12;html=1;endArrow=ERoneToMany;rounded=0;" parent="1" source="BeFHwcyI2mmiKTag6LvH-173" target="BeFHwcyI2mmiKTag6LvH-37" edge="1">
          <mxGeometry width="100" height="100" relative="1" as="geometry">
            <mxPoint x="490" y="710" as="sourcePoint" />
            <mxPoint x="590" y="610" as="targetPoint" />
          </mxGeometry>
        </mxCell>
        <mxCell id="BeFHwcyI2mmiKTag6LvH-185" value="" style="edgeStyle=entityRelationEdgeStyle;fontSize=12;html=1;endArrow=ERone;endFill=1;rounded=0;" parent="1" source="BeFHwcyI2mmiKTag6LvH-173" target="BeFHwcyI2mmiKTag6LvH-1" edge="1">
          <mxGeometry width="100" height="100" relative="1" as="geometry">
            <mxPoint x="490" y="710" as="sourcePoint" />
            <mxPoint x="350" y="370" as="targetPoint" />
          </mxGeometry>
        </mxCell>
        <mxCell id="BeFHwcyI2mmiKTag6LvH-186" value="" style="edgeStyle=entityRelationEdgeStyle;fontSize=12;html=1;endArrow=ERone;endFill=1;rounded=0;" parent="1" source="BeFHwcyI2mmiKTag6LvH-174" target="BeFHwcyI2mmiKTag6LvH-1" edge="1">
          <mxGeometry width="100" height="100" relative="1" as="geometry">
            <mxPoint x="270" y="405" as="sourcePoint" />
            <mxPoint x="420" y="320" as="targetPoint" />
          </mxGeometry>
        </mxCell>
        <mxCell id="BeFHwcyI2mmiKTag6LvH-187" value="" style="edgeStyle=entityRelationEdgeStyle;fontSize=12;html=1;endArrow=ERoneToMany;rounded=0;" parent="1" source="BeFHwcyI2mmiKTag6LvH-26" target="BeFHwcyI2mmiKTag6LvH-174" edge="1">
          <mxGeometry width="100" height="100" relative="1" as="geometry">
            <mxPoint x="850" y="470" as="sourcePoint" />
            <mxPoint x="625" y="490" as="targetPoint" />
          </mxGeometry>
        </mxCell>
        <mxCell id="BeFHwcyI2mmiKTag6LvH-188" value="has" style="shape=rhombus;perimeter=rhombusPerimeter;whiteSpace=wrap;html=1;align=center;" parent="1" vertex="1">
          <mxGeometry x="-95" y="540" width="70" height="50" as="geometry" />
        </mxCell>
        <mxCell id="BeFHwcyI2mmiKTag6LvH-189" value="" style="endArrow=none;html=1;rounded=0;" parent="1" source="BeFHwcyI2mmiKTag6LvH-37" target="BeFHwcyI2mmiKTag6LvH-188" edge="1">
          <mxGeometry relative="1" as="geometry">
            <mxPoint x="130" y="540" as="sourcePoint" />
            <mxPoint x="290" y="540" as="targetPoint" />
          </mxGeometry>
        </mxCell>
        <mxCell id="BeFHwcyI2mmiKTag6LvH-190" value="" style="endArrow=none;html=1;rounded=0;" parent="1" source="BeFHwcyI2mmiKTag6LvH-188" target="BeFHwcyI2mmiKTag6LvH-61" edge="1">
          <mxGeometry relative="1" as="geometry">
            <mxPoint x="-60" y="570" as="sourcePoint" />
            <mxPoint x="-50" y="550" as="targetPoint" />
          </mxGeometry>
        </mxCell>
        <mxCell id="BeFHwcyI2mmiKTag6LvH-191" value="uses" style="shape=rhombus;perimeter=rhombusPerimeter;whiteSpace=wrap;html=1;align=center;" parent="1" vertex="1">
          <mxGeometry x="200" y="460" width="70" height="50" as="geometry" />
        </mxCell>
        <mxCell id="BeFHwcyI2mmiKTag6LvH-192" value="" style="endArrow=none;html=1;rounded=0;" parent="1" source="BeFHwcyI2mmiKTag6LvH-37" target="BeFHwcyI2mmiKTag6LvH-191" edge="1">
          <mxGeometry relative="1" as="geometry">
            <mxPoint x="-62.06000000000023" y="459.9988059701493" as="sourcePoint" />
            <mxPoint x="190.0046067415728" y="471.2852808988764" as="targetPoint" />
          </mxGeometry>
        </mxCell>
        <mxCell id="BeFHwcyI2mmiKTag6LvH-193" value="" style="endArrow=none;html=1;rounded=0;" parent="1" source="BeFHwcyI2mmiKTag6LvH-191" target="BeFHwcyI2mmiKTag6LvH-60" edge="1">
          <mxGeometry relative="1" as="geometry">
            <mxPoint y="432" as="sourcePoint" />
            <mxPoint x="252" y="444" as="targetPoint" />
          </mxGeometry>
        </mxCell>
        <mxCell id="BeFHwcyI2mmiKTag6LvH-197" value="" style="edgeStyle=entityRelationEdgeStyle;fontSize=12;html=1;endArrow=ERmany;rounded=0;" parent="1" source="BeFHwcyI2mmiKTag6LvH-198" target="BeFHwcyI2mmiKTag6LvH-61" edge="1">
          <mxGeometry width="100" height="100" relative="1" as="geometry">
            <mxPoint x="180" y="775" as="sourcePoint" />
            <mxPoint x="217.5" y="857.5" as="targetPoint" />
          </mxGeometry>
        </mxCell>
        <mxCell id="BeFHwcyI2mmiKTag6LvH-198" value="belongs" style="shape=rhombus;perimeter=rhombusPerimeter;whiteSpace=wrap;html=1;align=center;fillColor=default;rounded=0;shadow=0;" parent="1" vertex="1">
          <mxGeometry x="150" y="760" width="70" height="50" as="geometry" />
        </mxCell>
        <mxCell id="BeFHwcyI2mmiKTag6LvH-200" value="" style="edgeStyle=orthogonalEdgeStyle;fontSize=12;html=1;endArrow=ERone;endFill=1;rounded=0;jumpSize=0;startSize=0;" parent="1" source="BeFHwcyI2mmiKTag6LvH-198" target="BeFHwcyI2mmiKTag6LvH-60" edge="1">
          <mxGeometry width="100" height="100" relative="1" as="geometry">
            <mxPoint x="370" y="750" as="sourcePoint" />
            <mxPoint x="360" y="640" as="targetPoint" />
          </mxGeometry>
        </mxCell>
        <mxCell id="BeFHwcyI2mmiKTag6LvH-207" value="belongs" style="shape=rhombus;perimeter=rhombusPerimeter;whiteSpace=wrap;html=1;align=center;fillColor=default;rounded=0;shadow=0;" parent="1" vertex="1">
          <mxGeometry x="480" y="610" width="70" height="50" as="geometry" />
        </mxCell>
        <mxCell id="BeFHwcyI2mmiKTag6LvH-208" value="" style="fontSize=12;html=1;endArrow=ERone;endFill=1;rounded=0;jumpSize=0;startSize=0;" parent="1" source="BeFHwcyI2mmiKTag6LvH-207" target="BeFHwcyI2mmiKTag6LvH-60" edge="1">
          <mxGeometry width="100" height="100" relative="1" as="geometry">
            <mxPoint x="230" y="795" as="sourcePoint" />
            <mxPoint x="290" y="665" as="targetPoint" />
          </mxGeometry>
        </mxCell>
        <mxCell id="BeFHwcyI2mmiKTag6LvH-210" value="" style="edgeStyle=entityRelationEdgeStyle;fontSize=12;html=1;endArrow=ERmany;rounded=0;" parent="1" source="BeFHwcyI2mmiKTag6LvH-207" target="BeFHwcyI2mmiKTag6LvH-86" edge="1">
          <mxGeometry width="100" height="100" relative="1" as="geometry">
            <mxPoint x="525" y="709.58" as="sourcePoint" />
            <mxPoint x="578" y="635" as="targetPoint" />
            <Array as="points">
              <mxPoint x="620" y="640" />
            </Array>
          </mxGeometry>
        </mxCell>
        <mxCell id="BeFHwcyI2mmiKTag6LvH-211" value="has" style="shape=rhombus;perimeter=rhombusPerimeter;whiteSpace=wrap;html=1;align=center;" parent="1" vertex="1">
          <mxGeometry x="765" y="795" width="70" height="50" as="geometry" />
        </mxCell>
        <mxCell id="BeFHwcyI2mmiKTag6LvH-212" value="assigned" style="shape=rhombus;perimeter=rhombusPerimeter;whiteSpace=wrap;html=1;align=center;" parent="1" vertex="1">
          <mxGeometry x="810" y="830" width="70" height="50" as="geometry" />
        </mxCell>
        <mxCell id="BeFHwcyI2mmiKTag6LvH-214" value="" style="edgeStyle=elbowEdgeStyle;fontSize=12;html=1;endArrow=ERmany;rounded=0;elbow=vertical;" parent="1" source="BeFHwcyI2mmiKTag6LvH-211" target="BeFHwcyI2mmiKTag6LvH-122" edge="1">
          <mxGeometry width="100" height="100" relative="1" as="geometry">
            <mxPoint x="620" y="800" as="sourcePoint" />
            <mxPoint x="720" y="700" as="targetPoint" />
            <Array as="points">
              <mxPoint x="450" y="820" />
            </Array>
          </mxGeometry>
        </mxCell>
        <mxCell id="BeFHwcyI2mmiKTag6LvH-215" value="" style="edgeStyle=elbowEdgeStyle;fontSize=12;html=1;endArrow=ERmany;rounded=0;" parent="1" source="BeFHwcyI2mmiKTag6LvH-211" target="BeFHwcyI2mmiKTag6LvH-137" edge="1">
          <mxGeometry width="100" height="100" relative="1" as="geometry">
            <mxPoint x="775" y="830" as="sourcePoint" />
            <mxPoint x="510" y="920" as="targetPoint" />
          </mxGeometry>
        </mxCell>
        <mxCell id="BeFHwcyI2mmiKTag6LvH-216" value="" style="edgeStyle=elbowEdgeStyle;fontSize=12;html=1;endArrow=ERmany;rounded=0;" parent="1" source="BeFHwcyI2mmiKTag6LvH-212" target="BeFHwcyI2mmiKTag6LvH-122" edge="1">
          <mxGeometry width="100" height="100" relative="1" as="geometry">
            <mxPoint x="845" y="830" as="sourcePoint" />
            <mxPoint x="920" y="715" as="targetPoint" />
          </mxGeometry>
        </mxCell>
        <mxCell id="BeFHwcyI2mmiKTag6LvH-218" value="" style="fontSize=12;html=1;endArrow=ERone;endFill=1;rounded=0;jumpSize=0;startSize=0;edgeStyle=orthogonalEdgeStyle;elbow=vertical;" parent="1" source="BeFHwcyI2mmiKTag6LvH-212" target="BeFHwcyI2mmiKTag6LvH-137" edge="1">
          <mxGeometry width="100" height="100" relative="1" as="geometry">
            <mxPoint x="685" y="740" as="sourcePoint" />
            <mxPoint x="535" y="740" as="targetPoint" />
          </mxGeometry>
        </mxCell>
      </root>
    </mxGraphModel>
  </diagram>
</mxfile>
